# xmcd
#
# Track frame offsets: 
#        150
#        16932
#        30807
#        47336
#        62596
#        82949
#        96091
#        112515
#        125620
#        140613
#        153369
#        168718
#        182989
#        197548
#        215577
#
# Disc length: 3110 seconds
#
# Revision: 0
# Processed by: cddbd v1.5.2PL0 Copyright (c) Steve Scherf et al.
# Submitted via: ExactAudioCopy v1.0b3
#
DISCID=b80c240f
DTITLE=CURRY,CLIFFORD - Shagadelic
DYEAR=2006
DGENRE=Blues,Soul,R&B,Shag
TTITLE0=Shagadelic
TTITLE1=Shag Beach Party
TTITLE2=Intoxicated
TTITLE3=Music City Blues
TTITLE4=911 Emergency
TTITLE5=God Bless Our Love
TTITLE6=Mamma's Home Cooking
TTITLE7=Doing The Best I Can
TTITLE8=Shag To A Shuffle
TTITLE9=You Know I Love You
TTITLE10=Privilege And A Pleasure
TTITLE11=Beach Music And Bar-B-Que
TTITLE12=You're So Good For Me
TTITLE13=Oh Knoxville
TTITLE14=Charlotte
EXTD=
EXTT0=
EXTT1=
EXTT2=
EXTT3=
EXTT4=
EXTT5=
EXTT6=
EXTT7=
EXTT8=
EXTT9=
EXTT10=
EXTT11=
EXTT12=
EXTT13=
EXTT14=
PLAYORDER=
